<svg width="78" height="78" viewBox="0 0 78 78" fill="none" xmlns="http://www.w3.org/2000/svg">
<g clip-path="url(#clip0_478_91)">
<path d="M34.8595 0.0366507L42.9797 0C43.7717 0.0952918 44.5638 0.19547 45.3485 0.329856C52.7547 1.5882 59.3006 4.68884 64.8936 9.71488C71.615 15.7574 75.814 23.2463 77.3981 32.1744C77.6003 33.313 77.7368 34.4614 77.8855 35.6098C77.961 36.1962 77.9854 36.7777 78 37.3813V40.0372C78 40.6334 77.961 41.2223 77.8879 41.8209C77.883 41.86 77.8757 41.8991 77.8733 41.9406C77.303 49.3221 74.8635 56.0316 70.4671 61.9665C64.2721 70.3327 56.0398 75.5053 45.7969 77.394C44.6296 77.6091 43.4476 77.7434 42.2681 77.8925C41.6978 77.9633 41.1227 78 40.5475 78H37.879C37.2721 78 36.6702 77.9291 36.0634 77.8803H36.0585C28.6694 77.3134 21.9529 74.8749 16.0089 70.4524C7.66451 64.2389 2.50285 55.9876 0.619012 45.7181C0.445982 44.7798 0.326567 43.8318 0.209589 42.8837C-0.0999153 40.218 -0.029241 37.6769 0.180345 35.0381C0.23396 34.5836 0.290012 34.1267 0.353375 33.6747C1.46954 25.7239 4.65719 18.7187 10.0333 12.7691C16.0552 6.10112 23.5004 1.94004 32.3639 0.400714C33.1925 0.256555 34.026 0.144159 34.8595 0.0366507ZM39.0024 3.73104C19.6304 3.73348 3.95289 19.4346 3.92608 38.8644C3.89684 58.3015 19.6353 74.1028 39 74.0784C58.3721 74.0539 74.0496 58.3503 74.0861 38.9352C74.1227 19.5031 58.4013 3.7286 39.0024 3.73104Z" fill="white"/>
<path d="M39.0119 45.7034C40.9786 43.453 42.8819 41.2735 44.7828 39.094C46.8714 36.702 48.955 34.3074 51.0509 31.9203C51.7552 31.1164 52.5253 30.9038 53.3539 31.2312C54.6626 31.7517 54.9989 33.2934 54.0168 34.4467C52.6983 35.9934 51.3482 37.5132 50.0127 39.0427C46.9201 42.5832 43.8324 46.1236 40.7373 49.6592C39.5919 50.9688 38.4197 50.9664 37.2816 49.6616C32.8876 44.6283 28.4936 39.5974 24.1021 34.5616C23.2125 33.5427 23.2077 32.3552 24.0753 31.5855C24.9502 30.8085 26.1151 30.9478 27.0119 31.9716C30.8112 36.311 34.5984 40.6578 38.3929 44.9997C38.5757 45.2074 38.7609 45.415 39.0143 45.7009L39.0119 45.7034Z" fill="white"/>
</g>
<defs>
<clipPath id="clip0_478_91">
<rect width="78" height="78" fill="white"/>
</clipPath>
</defs>
</svg>
